# xmcd
#
# Track frame offsets:
#	182
#	19352
#	40157
#	61077
#	82900
#	103777
#	124590
#	147907
#	168382
#	186405
#
# Disc length: 2772 seconds
#
# Revision: 2
# Processed by: cddbd v1.5.2PL0 Copyright (c) Steve Scherf et al.
# Submitted via: EasyCDDAExtractor 15.3.0.1
#
DISCID=820ad20a
DTITLE=Yvonne - Sigueme
DYEAR=1994
DGENRE=Latin
TTITLE0=Sigueme
TTITLE1=Loca Por Tu Amor
TTITLE2=Busco Un Lugar
TTITLE3=Comenzo La Fiesta
TTITLE4=Amor Sincero
TTITLE5=Lo Voy A Conquistar
TTITLE6=A Pesar Del Tiempo
TTITLE7=Dime Si Me Quieres
TTITLE8=Yo, La Culpa
TTITLE9=Si, Y Que
EXTD=
EXTT0=
EXTT1=
EXTT2=
EXTT3=
EXTT4=
EXTT5=
EXTT6=
EXTT7=
EXTT8=
EXTT9=
PLAYORDER=
